<svg width="1024" height="180" viewBox="0 0 1024 180" fill="none" xmlns="http://www.w3.org/2000/svg">
<path d="M49.775 105.089C54.3828 103.715 61.8069 101.605 70.3434 101.082C65.2222 88.1449 63.986 76.8242 64.9803 66.7442C66.1285 55.1033 70.23 45.3874 74.228 37.1201C75.0811 35.3561 75.9012 33.7135 76.6879 32.1378C77.8017 29.9069 78.8486 27.81 79.8278 25.6916C81.4579 22.1652 82.6674 19.051 83.2791 16.1576C83.8806 13.3125 83.8838 10.7715 83.1727 8.3342C82.4607 5.89352 80.9475 3.26635 78.0704 0.386692C74.3134 -0.587559 70.1448 0.267767 67.0197 3.08162L29.9298 36.4772C27.861 38.34 26.503 40.8642 26.0879 43.6182L22.8899 64.8384C27.9185 69.2873 40.33 82.2201 47.8789 100.165C48.5525 101.766 49.1875 103.408 49.775 105.089Z" fill="white"/>
<path d="M21.3902 74.5293C21.2153 75.2761 20.9692 76.0051 20.6549 76.7063L1.05225 120.436C-0.961131 124.928 -0.0336421 130.194 3.39276 133.726L34.2418 165.523C49.9952 142.262 47.6984 120.379 40.5026 103.274C35.0465 90.3037 26.777 80.1526 21.3902 74.5293Z" fill="white"/>
<path d="M41.3687 169.269C41.9093 169.355 42.4575 169.407 43.0096 169.424C48.864 169.6 58.7098 170.109 66.6947 171.582C73.2088 172.783 86.1213 176.397 96.747 179.505C104.855 181.877 113.211 175.396 114.387 167.024C115.245 160.917 116.855 154.009 119.821 147.677L119.753 147.702C114.73 133.682 108.34 124.629 101.641 118.849C94.9619 113.086 87.7709 110.397 80.8276 109.42C69.2835 107.795 58.7071 110.832 52.0453 112.791C56.0353 129.428 54.8074 149.004 41.3687 169.269Z" fill="white"/>
<path d="M124.96 139.034C131.626 128.965 136.375 121.134 138.881 116.888C140.135 114.764 139.907 112.102 138.423 110.133C134.554 105.002 127.152 94.5755 123.12 84.9218C118.973 74.9962 118.355 59.5866 118.319 52.081C118.306 49.2279 117.402 46.4413 115.639 44.1994L91.6762 13.73C91.5918 15.1034 91.3946 16.4659 91.1093 17.8158C90.3118 21.5882 88.8073 25.3437 87.0916 29.0552C86.086 31.2306 84.9238 33.5612 83.7497 35.9157C82.9682 37.4827 82.1814 39.0607 81.432 40.6102C77.5579 48.6213 73.9528 57.3151 72.9451 67.5313C72.011 77.0006 73.2894 88.014 79.0482 101.162C80.0074 101.243 80.9727 101.351 81.9422 101.487C90.2066 102.651 98.8807 105.891 106.866 112.781C113.73 118.704 119.932 127.19 124.96 139.034Z" fill="white"/>
<path d="M285.963 32.4276C243.146 32.4276 212.242 59.3846 212.242 96.3641C212.242 133.344 243.146 160.301 285.963 160.301C328.607 160.301 359.512 133.344 359.512 96.3641C359.512 59.3846 328.607 32.4276 285.963 32.4276ZM285.963 57.4838C311.688 57.4838 330.161 72.8631 330.161 96.3641C330.161 119.865 311.688 135.244 285.963 135.244C260.066 135.244 241.593 119.865 241.593 96.3641C241.593 72.8631 260.066 57.4838 285.963 57.4838Z" fill="white"/>
<path d="M399.14 148.032C405.355 154.771 416.922 160.301 432.116 160.301C463.192 160.301 481.32 138.873 481.32 112.953C481.32 86.86 463.192 65.4327 432.116 65.4327C416.922 65.4327 405.355 71.1351 399.14 77.7016V34.3284H371.516V158.4H399.14V148.032ZM398.276 112.435C398.276 98.0921 410.534 87.7241 426.418 87.7241C441.611 87.7241 454.387 96.7097 454.387 112.953C454.387 129.196 441.611 138.009 426.418 138.009C410.534 138.009 398.276 127.814 398.276 113.471V112.435Z" fill="white"/>
<path d="M484.265 143.366C494.796 154.08 514.996 160.301 536.059 160.301C564.546 160.301 585.955 149.933 585.955 128.678C585.955 107.942 565.582 103.967 542.275 101.203C522.593 98.9561 516.55 98.4378 516.55 93.4265C516.55 88.7609 522.765 85.8232 534.505 85.8232C548.663 85.8232 560.921 90.1433 569.208 97.7465L583.538 81.1576C574.387 72.3447 557.295 65.4327 535.887 65.4327C507.054 65.4327 489.272 77.8744 489.272 96.5369C489.272 116.063 507.4 120.384 529.153 123.148C549.526 125.568 558.158 125.568 558.158 131.616C558.158 137.318 550.562 139.737 538.131 139.737C522.593 139.737 508.263 134.899 497.386 124.876L484.265 143.366Z" fill="white"/>
<path d="M595.921 58.0022H624.063V34.3284H595.921V58.0022ZM623.717 67.3335H596.094V158.4H623.717V67.3335Z" fill="white"/>
<path d="M718.12 148.032V158.4H745.743V34.3284H718.12V77.7016C711.904 71.1351 700.337 65.4327 685.144 65.4327C654.067 65.4327 635.939 86.86 635.939 112.953C635.939 138.873 654.067 160.301 685.144 160.301C700.337 160.301 711.904 154.771 718.12 148.032ZM718.983 112.435V113.471C718.983 127.814 706.725 138.009 690.841 138.009C675.648 138.009 662.872 129.196 662.872 112.953C662.872 96.7097 675.648 87.7241 690.841 87.7241C706.725 87.7241 718.983 98.0921 718.983 112.435Z" fill="white"/>
<path d="M762.5 58.0022H790.642V34.3284H762.5V58.0022ZM790.296 67.3335H762.672V158.4H790.296V67.3335Z" fill="white"/>
<path d="M840.673 160.301C856.729 160.301 869.851 155.635 878.138 148.377C882.799 157.017 893.849 162.201 914.049 158.4V138.009C904.38 140.083 902.309 137.836 902.309 132.998V99.8202C902.309 77.0104 885.216 65.4327 856.211 65.4327C831.177 65.4327 811.15 76.3192 805.453 92.7353L830.314 99.4745C833.077 92.3897 842.572 87.2057 855.003 87.2057C869.678 87.2057 875.548 92.7353 875.548 99.6474V100.166L839.292 103.449C817.883 105.523 802.173 114.335 802.173 132.134C802.173 150.105 818.229 160.301 840.673 160.301ZM875.548 123.494C875.548 134.035 859.837 140.083 845.68 140.083C834.976 140.083 828.933 136.972 828.933 131.097C828.933 125.049 833.767 122.803 843.263 121.939L875.548 118.656V123.494Z" fill="white"/>
<path d="M923.519 158.4H951.142V114.854C951.142 99.1289 959.775 89.9705 974.795 89.9705C988.952 89.9705 996.376 99.3018 996.376 114.681V158.4H1024V106.559C1024 81.3304 1007.94 65.4327 984.291 65.4327C969.616 65.4327 958.221 70.9623 951.142 78.3928V67.3335H923.519V158.4Z" fill="white"/>
</svg>
